<svg width="116" height="34" viewBox="0 0 116 34" fill="none" xmlns="http://www.w3.org/2000/svg">
<path d="M5.41367 22.3589C5.0131 21.6864 5.28973 20.815 6.00482 20.4968L12.3383 17.6778C12.7211 17.5074 13.1624 17.531 13.5249 17.7412L17.144 19.8401C17.5045 20.0492 17.7437 20.4178 17.7877 20.8322L18.5266 27.7916C18.609 28.5676 17.9971 29.2423 17.2168 29.2359L14.2891 29.2118C13.5012 29.2053 12.8983 28.5081 13.0056 27.7275L13.5911 23.4685C13.6391 23.1191 13.4706 22.7755 13.165 22.5995C12.859 22.4233 12.4767 22.4504 12.1986 22.668L8.86441 25.2766C8.24456 25.7615 7.33979 25.5924 6.93703 24.9162L5.41367 22.3589Z" fill="white"/>
<path fill-rule="evenodd" clip-rule="evenodd" d="M19.1674 19.6496L24.7642 23.7665C25.0811 23.9996 25.5307 23.9018 25.722 23.5581L27.1724 20.9526C27.3634 20.6095 27.2106 20.1766 26.8466 20.0294L22.8811 18.4251C22.3068 18.1928 21.9309 17.6353 21.9309 17.0158C21.9309 16.4002 22.3021 15.8453 22.8712 15.6105L26.8505 13.9678C27.2127 13.8182 27.3627 13.3856 27.1707 13.044L25.7255 10.4722C25.5333 10.1302 25.0851 10.0335 24.769 10.266L19.1674 14.3864C19.0001 14.5094 18.9013 14.7048 18.9013 14.9125V19.1234C18.9013 19.3312 19.0001 19.5265 19.1674 19.6496ZM18.7804 20.1758C18.4457 19.9296 18.248 19.5389 18.248 19.1234V14.9125C18.248 14.4971 18.4457 14.1064 18.7804 13.8602L24.382 9.73982C25.0141 9.27486 25.9106 9.46812 26.295 10.1522L27.7402 12.724C28.1241 13.4073 27.8242 14.2725 27.0998 14.5716L23.1204 16.2142C22.7959 16.3482 22.5841 16.6647 22.5841 17.0158C22.5841 17.3691 22.7985 17.6871 23.1261 17.8196L27.0916 19.4238C27.8196 19.7184 28.1251 20.5841 27.7431 21.2703L26.2927 23.8758C25.9101 24.5632 25.011 24.7589 24.3772 24.2927L18.7804 20.1758Z" fill="#2DEBFC"/>
<path d="M17.1441 14.1478C17.5047 13.9387 17.7438 13.5701 17.7878 13.1556L18.5255 6.20842C18.6083 5.42808 17.9894 4.75129 17.2048 4.76425L14.2768 4.8126C13.4933 4.82554 12.8974 5.52047 13.0041 6.29674L13.591 10.5665C13.6392 10.9168 13.4702 11.2613 13.1638 11.4377C12.8583 11.6135 12.477 11.5873 12.1984 11.3715L8.81845 8.75265C8.19711 8.27122 7.29439 8.44352 6.89404 9.11995L5.40812 11.6306C5.01021 12.3029 5.28742 13.1718 6.00116 13.4895L12.3384 16.3101C12.7213 16.4805 13.1626 16.4569 13.5251 16.2467L17.1441 14.1478Z" fill="#2C85FC"/>
<path d="M48.0725 15.9063V24.4087H51.236V13.5733H46.6289V15.9063H48.0725Z" fill="white"/>
<path d="M47.9735 12.0508C48.2635 12.354 48.705 12.5055 49.2982 12.5055C49.8916 12.5055 50.3263 12.354 50.6029 12.0508C50.8933 11.7344 51.038 11.3389 51.038 10.8645C51.038 10.3767 50.8933 9.98122 50.6029 9.67814C50.3263 9.36179 49.8916 9.20355 49.2982 9.20355C48.705 9.20355 48.2635 9.36179 47.9735 9.67814C47.6968 9.98122 47.5583 10.3767 47.5583 10.8645C47.5583 11.3389 47.6968 11.7344 47.9735 12.0508Z" fill="white"/>
<path d="M72.6697 24.358C72.9598 24.6612 73.4013 24.8127 73.9944 24.8127C74.5879 24.8127 75.0226 24.6612 75.2992 24.358C75.5896 24.0416 75.7343 23.6461 75.7343 23.1717C75.7343 22.6839 75.5896 22.2884 75.2992 21.9853C75.0226 21.669 74.5879 21.5108 73.9944 21.5108C73.4013 21.5108 72.9598 21.669 72.6697 21.9853C72.3931 22.2884 72.2546 22.6839 72.2546 23.1717C72.2546 23.6461 72.3931 24.0416 72.6697 24.358Z" fill="white"/>
<path d="M37.0593 24.1712C37.9555 24.5798 39.0562 24.7842 40.3609 24.7842C41.587 24.7842 42.6413 24.5932 43.5247 24.2107C44.4079 23.8286 45.0865 23.2946 45.5611 22.6094C46.049 21.9105 46.2927 21.0998 46.2927 20.1771C46.2927 19.2809 46.0624 18.5229 45.6009 17.9033C45.1525 17.2706 44.5267 16.7763 43.7223 16.4205C42.9182 16.0513 41.9891 15.8206 40.9345 15.7285L39.8273 15.6296C39.1682 15.5767 38.6936 15.3989 38.4036 15.0956C38.1136 14.7925 37.9686 14.4366 37.9686 14.0281C37.9686 13.7115 38.0479 13.4217 38.2057 13.158C38.3641 12.8812 38.6012 12.6637 38.9177 12.5055C39.2472 12.3474 39.6493 12.2683 40.1238 12.2683C40.6245 12.2683 41.0399 12.3604 41.3695 12.5451C41.442 12.5841 41.5109 12.6258 41.5756 12.6701L41.5912 12.6811C41.6154 12.6978 41.6393 12.7151 41.6624 12.7326C41.8627 12.8856 42.022 13.067 42.1406 13.2766C42.3117 13.5667 42.398 13.8895 42.398 14.2455H45.5611C45.5611 13.2964 45.3436 12.4725 44.9089 11.7739C44.4738 11.0622 43.8477 10.5151 43.0306 10.1327C42.2262 9.73729 41.2575 9.53957 40.1238 9.53957C39.0428 9.53957 38.1071 9.72423 37.316 10.0933C36.5253 10.4492 35.9058 10.9633 35.4577 11.6354C35.0223 12.3077 34.8048 13.1053 34.8048 14.0281C34.8048 15.3066 35.2336 16.3347 36.0903 17.1125C36.947 17.8903 38.094 18.3384 39.5307 18.457L40.6183 18.5559C41.5011 18.635 42.1406 18.813 42.5361 19.0897C42.9313 19.3533 43.1292 19.7158 43.1292 20.1771C43.1292 20.3892 43.0946 20.588 43.025 20.7738C42.9734 20.9117 42.9029 21.0423 42.8131 21.1658C42.6018 21.4428 42.2921 21.66 41.8836 21.8184C41.475 21.9764 40.9674 22.0555 40.3609 22.0555C39.6888 22.0555 39.1417 21.9634 38.7201 21.7788C38.2981 21.5809 37.982 21.3239 37.7707 21.0077C37.5731 20.6912 37.4744 20.3486 37.4744 19.9794H34.3306C34.3306 20.9153 34.5612 21.7458 35.0223 22.4709C35.4838 23.1826 36.1628 23.7496 37.0593 24.1712Z" fill="white"/>
<path d="M79.8826 24.1712C80.7788 24.5798 81.8794 24.7842 83.1842 24.7842C84.4102 24.7842 85.4645 24.5932 86.348 24.2107C87.2311 23.8286 87.9098 23.2946 88.3843 22.6094C88.8723 21.9105 89.1159 21.0998 89.1159 20.1771C89.1159 19.2809 88.8857 18.5229 88.4242 17.9033C87.9758 17.2706 87.35 16.7763 86.5456 16.4205C85.7415 16.0513 84.8123 15.8206 83.7577 15.7285L82.6505 15.6296C81.9914 15.5767 81.5169 15.3989 81.2269 15.0956C80.9368 14.7925 80.7918 14.4366 80.7918 14.0281C80.7918 13.7115 80.8712 13.4217 81.0289 13.158C81.1873 12.8812 81.4245 12.6637 81.7409 12.5055C82.0705 12.3474 82.4725 12.2683 82.9471 12.2683C83.4478 12.2683 83.8632 12.3604 84.1927 12.5451C84.2652 12.5841 84.3341 12.6258 84.3988 12.6701L84.4145 12.6811C84.4387 12.6978 84.4625 12.7151 84.4857 12.7326C84.6859 12.8856 84.8453 13.067 84.9638 13.2766C85.135 13.5667 85.2212 13.8895 85.2212 14.2455H88.3843C88.3843 13.2964 88.1668 12.4725 87.7321 11.7739C87.2971 11.0622 86.671 10.5151 85.8538 10.1327C85.0494 9.73729 84.0807 9.53957 82.9471 9.53957C81.866 9.53957 80.9303 9.72423 80.1393 10.0933C79.3486 10.4492 78.729 10.9633 78.2809 11.6354C77.8456 12.3077 77.628 13.1053 77.628 14.0281C77.628 15.3066 78.0569 16.3347 78.9135 17.1125C79.7702 17.8903 80.9172 18.3384 82.354 18.457L83.4415 18.5559C84.3243 18.635 84.9638 18.813 85.3594 19.0897C85.7545 19.3533 85.9525 19.7158 85.9525 20.1771C85.9525 20.3892 85.9178 20.588 85.8483 20.7738C85.7967 20.9117 85.7261 21.0423 85.6363 21.1658C85.425 21.4428 85.1154 21.66 84.7068 21.8184C84.2982 21.9764 83.7907 22.0555 83.1842 22.0555C82.512 22.0555 81.965 21.9634 81.5433 21.7788C81.1214 21.5809 80.8052 21.3239 80.5939 21.0077C80.3963 20.6912 80.2977 20.3486 80.2977 19.9794H77.1538C77.1538 20.9153 77.3844 21.7458 77.8456 22.4709C78.307 23.1826 78.986 23.7496 79.8826 24.1712Z" fill="white"/>
<path d="M58.2945 24.5468C57.2003 24.5468 56.3172 24.4152 55.6451 24.1513C54.9726 23.8746 54.4784 23.42 54.162 22.7874C53.8589 22.1414 53.7073 21.2713 53.7073 20.1771V15.8865H52.0662V13.5732H53.7073V10.6469H56.6533V13.5732H59.8171V15.8865H56.6533V20.2959C56.6533 20.81 56.7852 21.2053 57.0488 21.482C57.3254 21.7458 57.7144 21.8775 58.2154 21.8775H59.8171V24.5468H58.2945Z" fill="white"/>
<path d="M107.551 24.5468C106.456 24.5468 105.573 24.4152 104.901 24.1513C104.229 23.8746 103.735 23.42 103.418 22.7874C103.115 22.1414 102.963 21.2713 102.963 20.1771V15.8865H101.322V13.5732H102.963V10.6469H105.909V13.5732H109.073V15.8865H105.909V20.2959C105.909 20.81 106.041 21.2053 106.305 21.482C106.582 21.7458 106.971 21.8775 107.472 21.8775H109.073V24.5468H107.551Z" fill="white"/>
<path fill-rule="evenodd" clip-rule="evenodd" d="M63.626 24.3097C64.3377 24.6262 65.1552 24.7843 66.0778 24.7843C66.9871 24.7843 67.7915 24.6262 68.4901 24.3097C69.1887 23.9933 69.7687 23.5517 70.2299 22.985C70.6914 22.4181 71.0013 21.7724 71.1591 21.0473H68.2527C68.121 21.3769 67.8705 21.6535 67.5015 21.8775C67.1324 22.1019 66.6575 22.2139 66.0778 22.2139C65.7186 22.2139 65.3975 22.1715 65.1147 22.0862C64.8994 22.0216 64.7064 21.9324 64.5356 21.8184C64.1401 21.5549 63.8501 21.1855 63.6655 20.7112C63.6143 20.576 63.5705 20.4346 63.5336 20.2874C63.496 20.1382 63.4657 19.983 63.4428 19.8214H71.357V18.7537C71.357 17.765 71.146 16.8555 70.7244 16.0251C70.3024 15.1813 69.6894 14.5025 68.8856 13.9885C68.0946 13.4612 67.119 13.1976 65.9589 13.1976C65.0758 13.1976 64.2848 13.3558 63.5862 13.6722C62.9013 13.9752 62.3278 14.3905 61.8663 14.9177C61.4051 15.445 61.0491 16.0449 60.7983 16.7172C60.5612 17.3761 60.4426 18.0681 60.4426 18.7931V19.1886C60.4426 19.8873 60.5612 20.5727 60.7983 21.2449C61.0491 21.904 61.4051 22.5036 61.8663 23.0442C62.3408 23.5716 62.9271 23.9933 63.626 24.3097ZM63.4973 17.8663C63.5062 17.8244 63.5153 17.7832 63.5254 17.7426C63.5529 17.6308 63.5845 17.5237 63.6205 17.4213C63.6407 17.363 63.6623 17.3062 63.6855 17.251C63.883 16.7632 64.1731 16.3942 64.5552 16.1437C64.6983 16.0501 64.8531 15.974 65.0193 15.9154C65.2989 15.8172 65.6124 15.768 65.9589 15.768C66.4998 15.768 66.9476 15.8933 67.3036 16.1437C67.6726 16.3809 67.9496 16.7302 68.1341 17.1916C68.1491 17.2288 68.1632 17.2667 68.1769 17.3051C68.1988 17.3662 68.219 17.429 68.238 17.4933C68.2657 17.5889 68.2902 17.688 68.3118 17.7903C68.3274 17.8658 68.3408 17.943 68.3529 18.0221H63.467C63.4761 17.9693 63.4862 17.9174 63.4973 17.8663Z" fill="white"/>
<path fill-rule="evenodd" clip-rule="evenodd" d="M93.0747 24.3097C93.7864 24.6262 94.6039 24.7843 95.5265 24.7843C96.4358 24.7843 97.2402 24.6262 97.9388 24.3097C98.6374 23.9933 99.2175 23.5517 99.6786 22.985C100.14 22.4181 100.45 21.7724 100.608 21.0473H97.7014C97.5698 21.3769 97.3193 21.6535 96.9502 21.8775C96.5811 22.1019 96.1063 22.2139 95.5265 22.2139C95.1673 22.2139 94.8462 22.1715 94.5634 22.0862C94.3482 22.0216 94.1551 21.9324 93.9843 21.8184C93.5888 21.5549 93.2988 21.1855 93.1143 20.7112C93.063 20.576 93.0192 20.4346 92.9823 20.2874C92.9448 20.1382 92.9144 19.983 92.8915 19.8214H100.806V18.7537C100.806 17.765 100.595 16.8555 100.173 16.0251C99.7511 15.1813 99.1381 14.5025 98.3343 13.9885C97.5433 13.4612 96.5678 13.1976 95.4077 13.1976C94.5245 13.1976 93.7335 13.3558 93.0349 13.6722C92.35 13.9752 91.7765 14.3905 91.315 14.9177C90.8539 15.445 90.4979 16.0449 90.247 16.7172C90.0099 17.3761 89.8914 18.0681 89.8914 18.7931V19.1886C89.8914 19.8873 90.0099 20.5727 90.247 21.2449C90.4979 21.904 90.8539 22.5036 91.315 23.0442C91.7896 23.5716 92.3758 23.9933 93.0747 24.3097ZM92.9461 17.8663C92.9549 17.8244 92.964 17.7832 92.9742 17.7426C93.0016 17.6308 93.0333 17.5237 93.0692 17.4213C93.0894 17.363 93.111 17.3062 93.1342 17.251C93.3318 16.7632 93.6218 16.3942 94.0039 16.1437C94.147 16.0501 94.3018 15.974 94.468 15.9154C94.7476 15.8172 95.0611 15.768 95.4077 15.768C95.9485 15.768 96.3963 15.8933 96.7523 16.1437C97.1213 16.3809 97.3983 16.7302 97.5828 17.1916C97.5979 17.2288 97.6119 17.2667 97.6256 17.3051C97.6475 17.3662 97.6677 17.429 97.6867 17.4933C97.7145 17.5889 97.7389 17.688 97.7605 17.7903C97.7762 17.8658 97.7896 17.943 97.8017 18.0221H92.9157C92.9248 17.9693 92.935 17.9174 92.9461 17.8663Z" fill="white"/>
</svg>
